<?xml version="1.0" ?><svg viewBox="0 0 512 512" xmlns="http://www.w3.org/2000/svg"><defs><style>.cls-1{fill:#333232;}.cls-2{opacity:0.3;}.cls-3{fill:#fff;}</style></defs><title/><g data-name="Layer 2" id="Layer_2"><g data-name="Layer 1" id="Layer_1-2"><circle class="cls-1" cx="256" cy="256" r="256"/><path class="cls-2" d="M511.84,262.37l-.18-.16a21.26,21.26,0,0,0-3.59-3.59c-1-1.34-106.47-106.75-107.8-107.8a21.28,21.28,0,0,0-16.82-8.18H128.55A21.29,21.29,0,0,0,107.4,161a3,3,0,0,0-.24,1.16V347.42H84.56a3,3,0,0,0-3,3v1.25a17.67,17.67,0,0,0,7.13,14.17,17.83,17.83,0,0,0,3.59,3.59c1,1.36,138.78,139.12,140.14,140.14a17.79,17.79,0,0,0,1.23,1.42c7.36.64,14.79,1,22.32,1C395.25,512,508.45,400.8,511.84,262.37Z"/><path class="cls-3" d="M388.05,173H123.95a3,3,0,0,0-3,3V336.6a3,3,0,0,0,3,3h264.1a3,3,0,0,0,3-3V176A3,3,0,0,0,388.05,173Zm-3,160.64H126.93V178.94H385.08Zm42.36,13.81h-22.6V162.15a3,3,0,0,0-.24-1.17,21.29,21.29,0,0,0-21.14-18.34H128.55A21.29,21.29,0,0,0,107.4,161a3,3,0,0,0-.24,1.16V347.42H84.56a3,3,0,0,0-3,3v1.25a17.73,17.73,0,0,0,17.71,17.71H412.71a17.72,17.72,0,0,0,17.71-17.71V350.4A3,3,0,0,0,427.44,347.42ZM128.55,148.6h254.9a15.37,15.37,0,0,1,14.66,10.58H113.89A15.37,15.37,0,0,1,128.55,148.6Zm-15.43,16.53H398.88V347.42H113.12ZM412.71,363.4H99.29a11.77,11.77,0,0,1-11.63-10H424.33A11.77,11.77,0,0,1,412.71,363.4ZM259.08,153.89a3.08,3.08,0,1,1-3.08-3.08A3.08,3.08,0,0,1,259.08,153.89ZM145.76,324.69H369.43v-3.2H357.52V302.76a3,3,0,0,0-3-3H324.72a3,3,0,0,0-3,3v18.73H316.1V268.68a3,3,0,0,0-3-3H283.31a3,3,0,0,0-3,3v52.81h-5.64V208.1a3,3,0,0,0-3-3H241.89a3,3,0,0,0-3,3V321.49h-5.64V252.27a3,3,0,0,0-3-3H200.47a3,3,0,0,0-3,3v69.22h-5.64v-25a3,3,0,0,0-3-3H159.06a3,3,0,0,0-3,3v25H145.76v-22h4v-3.2h-4v-22h4V271h-4V249h4v-3.2h-4v-22h4v-3.2h-4v-22h4v-3.2h-7.23V324.69h3.2ZM327.7,305.74h23.87v13H327.7Zm-41.41-34.08h23.86v47.06H286.28Zm-41.42-60.58h23.87V318.72H244.86Zm-41.41,44.17h23.86v63.47H203.45ZM162,299.42H185.9v19.29H162Z"/></g></g></svg>